<svg width="32" height="30" viewBox="0 0 32 30" fill="none" xmlns="http://www.w3.org/2000/svg">
<path d="M0 8H4.3837L5.87181 22.1881H21.8207V11.8181H8.65286" stroke="#8E8E8E" stroke-width="2" stroke-miterlimit="10"/>
<path d="M8.70007 29.3991C9.89761 29.3991 10.8684 28.4283 10.8684 27.2308C10.8684 26.0333 9.89761 25.0625 8.70007 25.0625C7.50254 25.0625 6.53174 26.0333 6.53174 27.2308C6.53174 28.4283 7.50254 29.3991 8.70007 29.3991Z" fill="#8E8E8E"/>
<path d="M19.3526 29.3991C20.5501 29.3991 21.5209 28.4283 21.5209 27.2308C21.5209 26.0333 20.5501 25.0625 19.3526 25.0625C18.1551 25.0625 17.1843 26.0333 17.1843 27.2308C17.1843 28.4283 18.1551 29.3991 19.3526 29.3991Z" fill="#8E8E8E"/>
<circle cx="24" cy="8" r="8" fill="#6BB333"/>
<path d="M26.6987 12H21.5371V11.2319L23.605 9.15332C24.2352 8.51595 24.6506 8.0612 24.8511 7.78906C25.0516 7.51693 25.202 7.25195 25.3022 6.99414C25.4025 6.73633 25.4526 6.45882 25.4526 6.16162C25.4526 5.74268 25.3255 5.41146 25.0713 5.16797C24.8171 4.9209 24.4644 4.79736 24.0132 4.79736C23.6873 4.79736 23.3776 4.85107 23.084 4.9585C22.7939 5.06592 22.4699 5.26107 22.1118 5.54395L21.6392 4.93701C22.3625 4.33545 23.1502 4.03467 24.0024 4.03467C24.7401 4.03467 25.3184 4.22445 25.7373 4.604C26.1562 4.97998 26.3657 5.48665 26.3657 6.12402C26.3657 6.62174 26.2261 7.1141 25.9468 7.60107C25.6675 8.08805 25.1447 8.70394 24.3784 9.44873L22.6597 11.1299V11.1729H26.6987V12Z" fill="white"/>
</svg>
